<?xml version="1.0" encoding="UTF-8" standalone="no"?>
<!-- Created with Inkscape (http://www.inkscape.org/) -->

<svg
   xmlns:dc="http://purl.org/dc/elements/1.1/"
   xmlns:cc="http://creativecommons.org/ns#"
   xmlns:rdf="http://www.w3.org/1999/02/22-rdf-syntax-ns#"
   xmlns:svg="http://www.w3.org/2000/svg"
   xmlns="http://www.w3.org/2000/svg"
   xmlns:sodipodi="http://sodipodi.sourceforge.net/DTD/sodipodi-0.dtd"
   xmlns:inkscape="http://www.inkscape.org/namespaces/inkscape"
   width="64px"
   height="64px"
   id="svg2985"
   version="1.1"
   inkscape:version="0.48.2 r9819"
   sodipodi:docname="zhung.svg"
   inkscape:export-filename="D:\code\rime\artworks\draft\zhung.png"
   inkscape:export-xdpi="90"
   inkscape:export-ydpi="90">
  <defs
     id="defs2987">
    <filter
       inkscape:collect="always"
       id="filter4245"
       x="-0.46826118"
       width="1.9365224"
       y="-0.037679732"
       height="1.0753595">
      <feGaussianBlur
         inkscape:collect="always"
         stdDeviation="0.70244046"
         id="feGaussianBlur4247" />
    </filter>
    <filter
       inkscape:collect="always"
       id="filter4249"
       x="-0.05411439"
       width="1.1082288"
       y="-0.40163773"
       height="1.8032755">
      <feGaussianBlur
         inkscape:collect="always"
         stdDeviation="0.70244046"
         id="feGaussianBlur4251" />
    </filter>
    <filter
       inkscape:collect="always"
       id="filter4253"
       x="-0.16907277"
       width="1.3381455"
       y="-0.086091922"
       height="1.1721838">
      <feGaussianBlur
         inkscape:collect="always"
         stdDeviation="0.70244046"
         id="feGaussianBlur4255" />
    </filter>
    <filter
       inkscape:collect="always"
       id="filter4257"
       x="-0.080404628"
       width="1.1608093"
       y="-0.38924402"
       height="1.778488">
      <feGaussianBlur
         inkscape:collect="always"
         stdDeviation="0.70244046"
         id="feGaussianBlur4259" />
    </filter>
    <filter
       inkscape:collect="always"
       id="filter4261"
       x="-0.12523109"
       width="1.2504622"
       y="-0.080092743"
       height="1.1601855">
      <feGaussianBlur
         inkscape:collect="always"
         stdDeviation="0.70244046"
         id="feGaussianBlur4263" />
    </filter>
    <filter
       inkscape:collect="always"
       id="filter4265"
       x="-0.073071163"
       width="1.1461423"
       y="-0.31210457"
       height="1.6242091">
      <feGaussianBlur
         inkscape:collect="always"
         stdDeviation="0.70244046"
         id="feGaussianBlur4267" />
    </filter>
    <filter
       inkscape:collect="always"
       id="filter5557">
      <feGaussianBlur
         inkscape:collect="always"
         stdDeviation="0.51795572"
         id="feGaussianBlur5559" />
    </filter>
  </defs>
  <sodipodi:namedview
     id="base"
     pagecolor="#ffffff"
     bordercolor="#666666"
     borderopacity="1.0"
     inkscape:pageopacity="0.0"
     inkscape:pageshadow="2"
     inkscape:zoom="1.3683087"
     inkscape:cx="164.18919"
     inkscape:cy="85.990389"
     inkscape:current-layer="layer1"
     showgrid="true"
     inkscape:document-units="px"
     inkscape:grid-bbox="true"
     inkscape:window-width="1048"
     inkscape:window-height="794"
     inkscape:window-x="188"
     inkscape:window-y="186"
     inkscape:window-maximized="0" />
  <metadata
     id="metadata2990">
    <rdf:RDF>
      <cc:Work
         rdf:about="">
        <dc:format>image/svg+xml</dc:format>
        <dc:type
           rdf:resource="http://purl.org/dc/dcmitype/StillImage" />
        <dc:title></dc:title>
      </cc:Work>
    </rdf:RDF>
  </metadata>
  <g
     inkscape:groupmode="layer"
     id="layer3"
     inkscape:label="层">
    <rect
       style="fill:#e6e6e6;stroke:#000000;stroke-width:3.5999999;stroke-linecap:butt;stroke-miterlimit:4;stroke-opacity:1;stroke-dasharray:none;stroke-linejoin:round;filter:url(#filter5557);opacity:1;fill-opacity:0.58823532000000001"
       id="rect3081"
       width="51.265244"
       height="52.325901"
       x="6.5407367"
       y="6.0172443" />
  </g>
  <g
     id="layer1"
     inkscape:label="Layer 1"
     inkscape:groupmode="layer">
    <path
       style="fill:#000000;stroke:#000000;stroke-width:1.64238937;stroke-opacity:1;filter:url(#filter4245);stroke-miterlimit:4;stroke-dasharray:none"
       id="path3005"
       d="m 33.293339,6.6878602 c 0.230951,4.4598138 0.205772,8.9272938 0.222648,13.3903688 -0.01786,7.448573 0.11862,14.897384 0.35648,22.343481 0.06042,1.867061 0.146065,3.480808 0.07904,5.34351 -0.03186,0.885358 -0.118814,1.768938 -0.178226,2.653405 0,0 -2.566492,1.010984 -2.566492,1.010984 l 0,0 c 0.05811,-0.880164 0.137963,-1.759599 0.174305,-2.640492 0.07896,-1.913813 0.02942,-3.446776 0.0023,-5.369718 -0.0485,-4.289912 -0.02981,-2.074797 -0.05345,-6.645358 -0.05241,-5.239855 -0.216086,-10.478527 -0.257213,-15.718468 -0.03903,-2.084465 -0.0713,-4.36202 -0.148859,-6.452548 -0.07477,-2.015145 -0.152868,-4.043868 -0.425763,-6.0502329 -0.03064,-0.2252326 -0.0816,-0.4484436 -0.122406,-0.6726654 0,0 2.917704,-1.1922664 2.917704,-1.1922664 z"
       inkscape:connector-curvature="0"
       transform="matrix(1,0,0,0.92753504,-0.29289322,6.1878148)" />
    <path
       style="fill:#000000;stroke:#000000;stroke-opacity:1;filter:url(#filter4253);stroke-width:2.20208501;stroke-miterlimit:4;stroke-dasharray:none"
       id="path3025"
       d="m 17.628517,18.701725 c 0.336763,3.258945 1.158993,6.477192 2.131609,9.665509 0.965792,3.070325 2.803361,5.936882 4.745444,8.742067 0,0 -2.889202,1.174483 -2.889202,1.174483 l 0,0 c -1.873558,-2.850157 -3.708247,-5.74524 -4.674147,-8.833599 -0.947747,-3.182598 -1.722138,-6.387097 -2.407843,-9.603818 0,0 3.094139,-1.144642 3.094139,-1.144642 z"
       inkscape:connector-curvature="0"
       transform="matrix(1,0,0,0.80865672,-0.29289322,6.9828564)" />
    <path
       style="fill:#000000;stroke:#000000;stroke-opacity:1;filter:url(#filter4257);stroke-width:2.20208501;stroke-miterlimit:4;stroke-dasharray:none"
       id="path3027"
       d="m 23.11324,36.121412 c 4.352777,0.246166 8.707206,0.279254 13.060849,0.16454 1.585225,-0.103468 2.732072,-0.108396 4.280021,-0.446236 0.4683,-0.102202 0.932356,-0.285454 1.398533,-0.428183 0,0 -2.0918,3.486434 -2.0918,3.486434 l 0,0 c -1.844018,0.424081 -3.691896,0.631994 -5.547341,0.580366 -4.442774,0.04406 -8.886237,0.01376 -13.328024,0.264306 0,0 2.227762,-3.62123 2.227762,-3.62123 z"
       inkscape:connector-curvature="0"
       transform="matrix(1,0,0,0.80865672,-0.29289322,6.9828564)" />
    <path
       style="fill:#000000;stroke:#000000;stroke-width:2.15402035;stroke-opacity:1;filter:url(#filter4261);stroke-miterlimit:4;stroke-dasharray:none"
       id="path3029"
       d="m 51.145781,17.893801 c -0.125178,0.239025 -0.263547,0.476023 -0.375536,0.717077 -0.419404,0.902764 -0.711237,1.722784 -1.080796,2.638847 -0.769444,1.907293 -1.605632,3.804223 -2.457995,5.700896 -1.540173,3.306203 -3.322604,6.631446 -5.752765,9.764772 -0.299377,0.386002 -0.633337,0.76235 -0.950007,1.143527 0,0 -2.84487,1.083693 -2.84487,1.083693 l 0,0 c 0.339516,-0.385731 0.69868,-0.765612 1.018554,-1.157193 1.943062,-2.378655 3.547966,-4.99665 4.837197,-7.515071 0.38486,-0.751798 0.709777,-1.512726 1.064665,-2.269091 0.80517,-1.875208 1.603058,-3.752167 2.32169,-5.637862 1.880818,-4.935302 -0.62333,1.512513 0.929933,-2.591523 0.08708,-0.230118 0.190392,-0.458375 0.285591,-0.687562 0,0 3.004339,-1.19051 3.004339,-1.19051 z"
       inkscape:connector-curvature="0"
       transform="matrix(1,0,0,0.80865672,-0.29289322,6.9828564)" />
    <path
       style="fill:#000000;stroke:#000000;stroke-opacity:1;filter:url(#filter4265);stroke-width:2.20208501;stroke-miterlimit:4;stroke-dasharray:none"
       id="path3071"
       d="m 16.825628,26.797211 c 0.619289,-0.612194 0.490645,-0.520331 1.264861,-1.099319 0.985507,-0.737 1.962928,-1.494307 2.967253,-2.186012 1.116018,-0.76863 2.348609,-1.1766 3.561488,-1.569855 2.825051,-0.826542 5.725191,-0.524198 8.586855,-0.318718 2.228641,0.170509 4.458894,0.291639 6.690985,0.335082 0,0 -1.841647,1.750731 -1.841647,1.750731 l 0,0 c -2.222039,-0.08732 -4.442099,-0.236109 -6.662668,-0.372597 -2.866659,-0.183029 -5.771138,-0.423074 -8.593686,0.436676 -1.137014,0.391664 -1.329784,0.408061 -2.423836,0.985246 -0.380326,0.200648 -0.877496,1.093088 -1.121994,0.660741 -0.239639,-0.423753 0.698536,-0.524773 1.026654,-0.829331 0.388315,-0.360434 -1.373427,1.056769 -1.212559,0.986706 0,0 -2.241706,1.22065 -2.241706,1.22065 z"
       inkscape:connector-curvature="0"
       transform="matrix(1,0,0,0.80865672,-0.29289322,6.9828564)" />
  </g>
</svg>
